<svg width="51" height="51" viewBox="0 0 51 51" fill="none" xmlns="http://www.w3.org/2000/svg">
<path d="M25.2499 10.9644C23.484 10.9644 21.7577 11.488 20.2894 12.4691C18.8211 13.4502 17.6767 14.8446 17.0009 16.4761C16.3252 18.1076 16.1483 19.9028 16.4929 21.6348C16.8374 23.3668 17.6877 24.9577 18.9364 26.2064C20.1851 27.4551 21.776 28.3054 23.508 28.6499C25.24 28.9944 27.0352 28.8176 28.6667 28.1418C30.2982 27.4661 31.6926 26.3217 32.6737 24.8534C33.6548 23.3851 34.1784 21.6588 34.1784 19.8929C34.1784 17.5249 33.2377 15.2539 31.5633 13.5795C29.8889 11.905 27.6179 10.9644 25.2499 10.9644ZM25.2499 25.2501C24.1903 25.2501 23.1546 24.9359 22.2736 24.3472C21.3926 23.7586 20.706 22.9219 20.3005 21.943C19.895 20.9641 19.789 19.887 19.9957 18.8478C20.2024 17.8086 20.7126 16.8541 21.4618 16.1049C22.211 15.3556 23.1656 14.8454 24.2047 14.6387C25.2439 14.432 26.3211 14.5381 27.3 14.9436C28.2788 15.349 29.1155 16.0357 29.7042 16.9167C30.2928 17.7976 30.607 18.8334 30.607 19.8929C30.6056 21.3133 30.0407 22.6751 29.0364 23.6794C28.032 24.6838 26.6702 25.2486 25.2499 25.2501Z" fill="#79b473"/>
<path d="M25.25 0.25C20.3055 0.25 15.472 1.71622 11.3608 4.46326C7.24952 7.21029 4.04521 11.1148 2.15302 15.6829C0.260832 20.2511 -0.234251 25.2777 0.730379 30.1273C1.69501 34.9768 4.07603 39.4313 7.57234 42.9277C11.0687 46.424 15.5232 48.805 20.3728 49.7696C25.2223 50.7343 30.2489 50.2392 34.8171 48.347C39.3852 46.4548 43.2897 43.2505 46.0367 39.1392C48.7838 35.028 50.25 30.1945 50.25 25.25C50.2424 18.6219 47.6061 12.2675 42.9193 7.58068C38.2325 2.89391 31.8781 0.257562 25.25 0.25V0.25ZM14.5357 43.7803V41.3214C14.5371 39.9011 15.102 38.5393 16.1064 37.5349C17.1107 36.5306 18.4725 35.9657 19.8929 35.9643H30.6071C32.0275 35.9657 33.3893 36.5306 34.3937 37.5349C35.398 38.5393 35.9629 39.9011 35.9643 41.3214V43.7803C32.7128 45.6789 29.0152 46.6794 25.25 46.6794C21.4848 46.6794 17.7872 45.6789 14.5357 43.7803V43.7803ZM39.5214 41.1893C39.4858 38.847 38.5315 36.6125 36.8641 34.9671C35.1967 33.3217 32.9497 32.3973 30.6071 32.3929H19.8929C17.5503 32.3973 15.3033 33.3217 13.6359 34.9671C11.9685 36.6125 11.0142 38.847 10.9786 41.1893C7.7403 38.2978 5.45667 34.4908 4.43007 30.2726C3.40347 26.0544 3.68233 21.6238 5.22972 17.5676C6.77711 13.5114 9.52004 10.0208 13.0953 7.55815C16.6706 5.09547 20.9095 3.77683 25.2509 3.77683C29.5923 3.77683 33.8312 5.09547 37.4065 7.55815C40.9818 10.0208 43.7247 13.5114 45.2721 17.5676C46.8195 21.6238 47.0983 26.0544 46.0717 30.2726C45.0451 34.4908 42.7615 38.2978 39.5232 41.1893H39.5214Z" fill="#79b473"/>
</svg>
